<!DOCTYPE svg PUBLIC "-//W3C//DTD SVG 1.1//EN" "http://www.w3.org/Graphics/SVG/1.1/DTD/svg11.dtd">
<!-- Uploaded to: SVG Repo, www.svgrepo.com, Transformed by: SVG Repo Mixer Tools -->
<svg fill="#ffffff" version="1.1" id="Capa_1" xmlns="http://www.w3.org/2000/svg" xmlns:xlink="http://www.w3.org/1999/xlink" width="800px" height="800px" viewBox="0 0 194.166 194.166" xml:space="preserve" stroke="#ffffff">
<g id="SVGRepo_bgCarrier" stroke-width="0"/>
<g id="SVGRepo_tracerCarrier" stroke-linecap="round" stroke-linejoin="round"/>
<g id="SVGRepo_iconCarrier"> <g> <g> <g> <path d="M93.401,107.812L72.458,93.685c-1.604-1.082-3.777-0.658-4.858,0.944s-0.658,3.778,0.943,4.857l21.082,14.222 c2.126,1.42,13.751,8.795,31.396,2.886c18.486-6.192,34.143-25.104,46.408-56.57c0.699-1.801-0.189-3.83-1.99-4.531 c-1.801-0.704-3.83,0.188-4.531,1.989c-11.273,28.918-25.814,46.917-41.926,52.413C104.375,114.876,93.75,108.062,93.401,107.812 z"/> <path d="M190.941,121.595c-20.48-1.611-48.707-11.064-48.99-11.16c-1.831-0.618-3.816,0.367-4.434,2.198 c-0.619,1.831,0.363,3.817,2.195,4.435c1.188,0.4,29.323,9.826,50.678,11.508c0.094,0.008,3.524,0.095,3.766-3.215 C194.295,123.431,192.868,121.748,190.941,121.595z"/> <path d="M84.601,63.772l43.333-25.333c1.668-0.976,2.23-3.119,1.254-4.788c-0.976-1.669-3.119-2.231-4.787-1.255L81.068,57.729 c-1.668,0.977-2.363,3.205-1.255,4.788C81.375,64.751,84.044,64.097,84.601,63.772z"/> <path d="M167.5,155.251h-25.729c-0.656-3.506-4.271-13.834-17.59-14.617c-0.021-0.001-0.037,0-0.057,0 c-8.752,0-16.061,6.305-17.631,14.617H67.772c-1.522-9.125-10.592-13.555-14.025-14.254c2.552-39.94,15.439-62.387,20.258-69.481 l44.22,29.48c1.609,1.072,3.782,0.638,4.854-0.973c1.071-1.606,0.639-3.779-0.972-4.854l-47-31.333 c-1.474-0.982-3.448-0.709-4.6,0.634c-0.843,0.983-20.561,24.566-23.773,76.492c-7.197,1.385-12.875,7.075-14.239,14.286H3.5 c-1.933,0-3.5,1.564-3.5,3.5c0,1.935,1.567,3.5,3.5,3.5h164c1.934,0,3.5-1.565,3.5-3.5 C171,156.814,169.434,155.251,167.5,155.251z M124.129,147.634c0.012,0,0.021-0.001,0.033,0c7.838,0.617,9.879,5.983,10.4,7.617 h-20.867C115.111,150.837,119.254,147.634,124.129,147.634z M50.129,147.634c0.012,0,0.022,0,0.033,0 c2.925,0.008,9.213,2.492,10.401,7.617H39.695C41.111,150.837,45.253,147.634,50.129,147.634z"/> </g> <path d="M45.355,82.389c8.914,0,16.166-7.252,16.166-16.167s-7.252-16.167-16.166-16.167c-8.915,0-16.168,7.252-16.168,16.167 S36.44,82.389,45.355,82.389z M45.355,57.055c5.055,0,9.166,4.112,9.166,9.167s-4.111,9.167-9.166,9.167 c-5.056,0-9.168-4.112-9.168-9.167S40.3,57.055,45.355,57.055z"/> </g> </g> </g>
</svg>